<?xml version="1.0" encoding="UTF-8" standalone="no"?>
<!DOCTYPE svg PUBLIC "-//W3C//DTD SVG 1.1//EN"
 "http://www.w3.org/Graphics/SVG/1.1/DTD/svg11.dtd">
<!-- Generated by graphviz version 2.40.1 (20161225.0304)
 -->
<!-- Title: helloworld01 Pages: 1 -->
<svg width="207pt" height="196pt"
 viewBox="0.00 0.00 207.00 196.00" xmlns="http://www.w3.org/2000/svg" xmlns:xlink="http://www.w3.org/1999/xlink">
<g id="graph0" class="graph" transform="scale(1 1) rotate(0) translate(4 192)">
<title>helloworld01</title>
<polygon fill="#ffffff" stroke="transparent" points="-4,4 -4,-192 203,-192 203,4 -4,4"/>
<!-- mrender -->
<g id="node1" class="node">
<title>mrender</title>
<polygon fill="#add8e6" stroke="transparent" points="157,-116 5,-116 5,-80 157,-80 157,-116"/>
<text text-anchor="start" x="12.7588" y="-95" font-family="Consolas" font-size="10.00" fill="#000000">m.render(</text>
<text text-anchor="start" x="67.5078" y="-95" font-family="Consolas" font-size="10.00" fill="#000000">element,</text>
<text text-anchor="start" x="116.5039" y="-95" font-family="Consolas" font-size="10.00" fill="#000000">view</text>
<text text-anchor="start" x="143.751" y="-95" font-family="Consolas" font-size="10.00" fill="#000000">)</text>
</g>
<!-- element -->
<g id="node2" class="node">
<title>element</title>
<polygon fill="#ffff00" stroke="transparent" points="180,-44 0,-44 0,0 180,0 180,-44"/>
<text text-anchor="start" x="7.5293" y="-28" font-family="Consolas" font-size="10.00" fill="#000000">document.getElementById(&quot;app&quot;)</text>
<text text-anchor="start" x="35.0195" y="-11" font-family="Consolas" font-size="10.00" fill="#000000">&lt;div id=&quot;app&quot;&gt;&lt;/div&gt;</text>
</g>
<!-- mrender&#45;&gt;element -->
<g id="edge1" class="edge">
<title>mrender:element&#45;&gt;element:app</title>
<path fill="none" stroke="#b03060" d="M90,-79.8716C90,-64.5265 90,-57.3194 90,-38"/>
<polygon fill="#b03060" stroke="#b03060" points="86.5001,-80 90,-90 93.5001,-80 86.5001,-80"/>
</g>
<!-- view -->
<g id="node3" class="node">
<title>view</title>
<polygon fill="#ffff00" stroke="transparent" points="199,-188 57,-188 57,-152 199,-152 199,-188"/>
<text text-anchor="start" x="64.7725" y="-167" font-family="Consolas" font-size="10.00" fill="#000000">m(&quot;h1&quot;, &quot;Hello, world&quot;)</text>
</g>
<!-- view&#45;&gt;mrender -->
<g id="edge2" class="edge">
<title>view:mview&#45;&gt;mrender:view</title>
<path fill="none" stroke="#b03060" d="M128,-161.897C128,-151.9787 128,-133.1654 128,-115.1513"/>
<polygon fill="#b03060" stroke="#b03060" points="131.5001,-115 128,-105 124.5001,-115 131.5001,-115"/>
</g>
</g>
</svg>
