<?xml version="1.0" encoding="UTF-8" standalone="no"?>
<!DOCTYPE svg PUBLIC "-//W3C//DTD SVG 1.1//EN"
 "http://www.w3.org/Graphics/SVG/1.1/DTD/svg11.dtd">
<!-- Generated by graphviz version 2.40.1 (20161225.0304)
 -->
<!-- Title: meiosistutorial Pages: 1 -->
<svg width="457pt" height="291pt"
 viewBox="0.00 0.00 457.11 291.00" xmlns="http://www.w3.org/2000/svg" xmlns:xlink="http://www.w3.org/1999/xlink">
<g id="graph0" class="graph" transform="scale(1 1) rotate(0) translate(4 287)">
<title>meiosistutorial</title>
<polygon fill="#ffffff" stroke="transparent" points="-4,4 -4,-287 453.1123,-287 453.1123,4 -4,4"/>
<!-- stream -->
<g id="node1" class="node">
<title>stream</title>
<text text-anchor="middle" x="79.6123" y="-188.4" font-family="Courier,monospace" font-size="12.00" fill="#000000">var update = stream()</text>
</g>
<!-- thestream -->
<g id="node4" class="node">
<title>thestream</title>
<polygon fill="#add8e6" stroke="transparent" points="351.1123,-210 200.1123,-210 200.1123,-174 351.1123,-174 351.1123,-210"/>
<text text-anchor="start" x="209.5117" y="-188.4" font-family="Courier,monospace" font-size="12.00" fill="#000000">1</text>
<text text-anchor="start" x="222.2041" y="-188.4" font-family="Courier,monospace" font-size="12.00" fill="#000000">      ...     </text>
<text text-anchor="start" x="328.4111" y="-188.4" font-family="Courier,monospace" font-size="12.00" fill="#000000">&#45;1</text>
<polygon fill="none" stroke="#000000" points="204.1123,-181 204.1123,-203 347.1123,-203 347.1123,-181 204.1123,-181"/>
</g>
<!-- stream&#45;&gt;thestream -->
<g id="edge3" class="edge">
<title>stream&#45;&gt;thestream</title>
<path fill="none" stroke="#b03060" d="M159.333,-192C169.428,-192 179.7912,-192 189.9735,-192"/>
<polygon fill="#b03060" stroke="#b03060" points="190.0789,-195.5001 200.0789,-192 190.0789,-188.5001 190.0789,-195.5001"/>
<text text-anchor="middle" x="179.6685" y="-197.4" font-family="Helvetica,sans-Serif" font-size="12.00" fill="#000080"> &#160;&#160;&#160;&#160;&#160;&#160;&#160;</text>
</g>
<!-- updateplus1 -->
<g id="node2" class="node">
<title>updateplus1</title>
<polygon fill="#ffff00" stroke="transparent" points="248.9231,-283 176.3015,-283 176.3015,-247 248.9231,-247 248.9231,-283"/>
<text text-anchor="middle" x="212.6123" y="-261.4" font-family="Courier,monospace" font-size="12.00" fill="#000000">update(1)</text>
</g>
<!-- updateplus1&#45;&gt;thestream -->
<g id="edge1" class="edge">
<title>updateplus1&#45;&gt;thestream:plusone</title>
<path fill="none" stroke="#b03060" d="M212.6123,-246.7883C212.6123,-236.5059 212.6123,-223.1556 212.6123,-210.2194"/>
<polygon fill="#b03060" stroke="#b03060" points="216.1124,-210 212.6123,-200 209.1124,-210 216.1124,-210"/>
</g>
<!-- updateminus1 -->
<g id="node3" class="node">
<title>updateminus1</title>
<polygon fill="#ffff00" stroke="transparent" points="375.624,-283 295.6006,-283 295.6006,-247 375.624,-247 375.624,-283"/>
<text text-anchor="middle" x="335.6123" y="-261.4" font-family="Courier,monospace" font-size="12.00" fill="#000000">update(&#45;1)</text>
</g>
<!-- updateminus1&#45;&gt;thestream -->
<g id="edge2" class="edge">
<title>updateminus1&#45;&gt;thestream:minusone</title>
<path fill="none" stroke="#b03060" d="M335.6123,-246.7883C335.6123,-236.5059 335.6123,-223.1556 335.6123,-210.2194"/>
<polygon fill="#b03060" stroke="#b03060" points="339.1124,-210 335.6123,-200 332.1124,-210 339.1124,-210"/>
</g>
<!-- map -->
<g id="node5" class="node">
<title>map</title>
<text text-anchor="start" x="110.4854" y="-119.4" font-family="Courier,monospace" font-size="12.00" fill="#000000">var otherStream = update.map(function(value) {</text>
<text text-anchor="start" x="110.6123" y="-101.4" font-family="Courier,monospace" font-size="12.00" fill="#000000"> &#160;&#160;&#160;return value * 10;</text>
<text text-anchor="start" x="110.6123" y="-83.4" font-family="Courier,monospace" font-size="12.00" fill="#000000">});</text>
</g>
<!-- thestream&#45;&gt;map -->
<g id="edge4" class="edge">
<title>thestream&#45;&gt;map</title>
<path fill="none" stroke="#b03060" d="M275.6123,-163.7732C275.6123,-155.2491 275.6123,-145.8287 275.6123,-137.0732"/>
<polygon fill="#b03060" stroke="#b03060" points="272.1124,-163.9735 275.6123,-173.9735 279.1124,-163.9736 272.1124,-163.9735"/>
</g>
<!-- themapstream -->
<g id="node6" class="node">
<title>themapstream</title>
<polygon fill="#ffa500" stroke="transparent" points="358.1123,-36 193.1123,-36 193.1123,0 358.1123,0 358.1123,-36"/>
<text text-anchor="start" x="202.4111" y="-14.4" font-family="Courier,monospace" font-size="12.00" fill="#000000">10</text>
<text text-anchor="start" x="222.2041" y="-14.4" font-family="Courier,monospace" font-size="12.00" fill="#000000">      ...     </text>
<text text-anchor="start" x="328.3105" y="-14.4" font-family="Courier,monospace" font-size="12.00" fill="#000000">&#45;10</text>
<polygon fill="none" stroke="#000000" points="197.1123,-7 197.1123,-29 354.1123,-29 354.1123,-7 197.1123,-7"/>
</g>
<!-- map&#45;&gt;themapstream -->
<g id="edge5" class="edge">
<title>map&#45;&gt;themapstream</title>
<path fill="none" stroke="#b03060" d="M275.6123,-72.6044C275.6123,-63.9084 275.6123,-54.5779 275.6123,-46.1338"/>
<polygon fill="#b03060" stroke="#b03060" points="279.1124,-46.0264 275.6123,-36.0265 272.1124,-46.0265 279.1124,-46.0264"/>
</g>
<!-- otherStream -->
<g id="node7" class="node">
<title>otherStream</title>
<text text-anchor="middle" x="108.6123" y="-14.4" font-family="Courier,monospace" font-size="12.00" fill="#000000">otherStream</text>
</g>
<!-- otherStream&#45;&gt;themapstream -->
<g id="edge6" class="edge">
<title>otherStream&#45;&gt;themapstream</title>
<path fill="none" stroke="#b03060" d="M152.4896,-18C161.9368,-18 172.265,-18 182.7932,-18"/>
<polygon fill="#b03060" stroke="#b03060" points="182.9265,-21.5001 192.9264,-18 182.9264,-14.5001 182.9265,-21.5001"/>
<text text-anchor="middle" x="172.6655" y="-23.4" font-family="Helvetica,sans-Serif" font-size="12.00" fill="#000080"> &#160;&#160;&#160;&#160;&#160;&#160;&#160;</text>
</g>
</g>
</svg>
