<?xml version="1.0" encoding="UTF-8" standalone="no"?>
<!DOCTYPE svg PUBLIC "-//W3C//DTD SVG 1.1//EN"
 "http://www.w3.org/Graphics/SVG/1.1/DTD/svg11.dtd">
<!-- Generated by graphviz version 2.40.1 (20161225.0304)
 -->
<!-- Title: meiosistutorial Pages: 1 -->
<svg width="242pt" height="332pt"
 viewBox="0.00 0.00 242.00 332.00" xmlns="http://www.w3.org/2000/svg" xmlns:xlink="http://www.w3.org/1999/xlink">
<g id="graph0" class="graph" transform="scale(1 1) rotate(0) translate(4 328)">
<title>meiosistutorial</title>
<polygon fill="#ffffff" stroke="transparent" points="-4,4 -4,-328 238,-328 238,4 -4,4"/>
<!-- model -->
<g id="node1" class="node">
<title>model</title>
<polygon fill="#add8e6" stroke="transparent" points="179,-324 125,-324 125,-288 179,-288 179,-324"/>
<text text-anchor="start" x="133.9971" y="-302.4" font-family="Courier,monospace" font-size="12.00" fill="#000000">model</text>
</g>
<!-- view -->
<g id="node2" class="node">
<title>view</title>
<polygon fill="#ffff00" stroke="transparent" points="199.5,-252 104.5,-252 104.5,-216 199.5,-216 199.5,-252"/>
<text text-anchor="start" x="112.8936" y="-230.4" font-family="Courier,monospace" font-size="12.00" fill="#000000">view(model)</text>
</g>
<!-- model&#45;&gt;view -->
<g id="edge1" class="edge">
<title>model&#45;&gt;view</title>
<path fill="none" stroke="#b03060" d="M152,-287.8314C152,-280.131 152,-270.9743 152,-262.4166"/>
<polygon fill="#b03060" stroke="#b03060" points="155.5001,-262.4132 152,-252.4133 148.5001,-262.4133 155.5001,-262.4132"/>
</g>
<!-- render -->
<g id="node3" class="node">
<title>render</title>
<polygon fill="#ffa500" stroke="transparent" points="188,-180 0,-180 0,-144 188,-144 188,-180"/>
<text text-anchor="start" x="7.5859" y="-158.4" font-family="Courier,monospace" font-size="12.00" fill="#000000">m.render(element, vnode)</text>
</g>
<!-- view&#45;&gt;render -->
<g id="edge2" class="edge">
<title>view&#45;&gt;render</title>
<path fill="none" stroke="#b03060" d="M137.3642,-215.8314C130.6839,-207.5386 122.6432,-197.557 115.3096,-188.4533"/>
<polygon fill="#b03060" stroke="#b03060" points="117.8319,-186.0052 108.8329,-180.4133 112.3806,-190.3965 117.8319,-186.0052"/>
</g>
<!-- update -->
<g id="node4" class="node">
<title>update</title>
<polygon fill="#add8e6" stroke="transparent" points="161,-108 81,-108 81,-72 161,-72 161,-108"/>
<text text-anchor="start" x="88.5947" y="-86.4" font-family="Courier,monospace" font-size="12.00" fill="#000000">update(1)</text>
</g>
<!-- render&#45;&gt;update -->
<g id="edge3" class="edge">
<title>render&#45;&gt;update</title>
<path fill="none" stroke="#b03060" d="M100.8132,-143.8314C103.7644,-135.9617 107.2858,-126.5712 110.555,-117.8533"/>
<polygon fill="#b03060" stroke="#b03060" points="113.8609,-119.0055 114.095,-108.4133 107.3066,-116.5476 113.8609,-119.0055"/>
</g>
<!-- modelupdate -->
<g id="node5" class="node">
<title>modelupdate</title>
<polygon fill="#00ff00" stroke="transparent" points="234,-36 96,-36 96,0 234,0 234,-36"/>
<text text-anchor="start" x="103.79" y="-14.4" font-family="Courier,monospace" font-size="12.00" fill="#000000">model = model + 1</text>
</g>
<!-- update&#45;&gt;modelupdate -->
<g id="edge4" class="edge">
<title>update&#45;&gt;modelupdate</title>
<path fill="none" stroke="#b03060" d="M132.1031,-71.8314C137.0674,-63.7079 143.0222,-53.9637 148.4928,-45.0118"/>
<polygon fill="#b03060" stroke="#b03060" points="151.5194,-46.7712 153.7474,-36.4133 145.5464,-43.121 151.5194,-46.7712"/>
</g>
<!-- modelupdate&#45;&gt;view -->
<g id="edge5" class="edge">
<title>modelupdate&#45;&gt;view</title>
<path fill="none" stroke="#b03060" d="M174.4398,-36.4481C188.7627,-67.0158 212.5534,-129.7773 195,-180 191.4043,-190.2879 184.9372,-200.0807 178.0924,-208.432"/>
<polygon fill="#b03060" stroke="#b03060" points="175.4498,-206.137 171.4956,-215.9663 180.7164,-210.7483 175.4498,-206.137"/>
</g>
</g>
</svg>
